<svg width="40" height="40" viewBox="0 0 40 40" fill="none" xmlns="http://www.w3.org/2000/svg">
<path d="M20 6.43999L18.78 5.23999C16.6999 3.27286 13.9347 2.19426 11.072 2.2333C8.20931 2.27235 5.47461 3.42598 3.44888 5.44911C1.42314 7.47224 0.266002 10.2054 0.223273 13.0681C0.180543 15.9308 1.25559 18.6973 3.22004 20.78L20 37.56L36.78 20.76C38.7445 18.6773 39.8195 15.9108 39.7768 13.0481C39.7341 10.1854 38.5769 7.45224 36.5512 5.42911C34.5255 3.40598 31.7908 2.25235 28.9281 2.2133C26.0653 2.17426 23.3002 3.25286 21.22 5.21999L20 6.43999V6.43999Z" fill="#FF3A00"/>
</svg>
