<svg width="50" height="50" viewBox="0 0 50 50" fill="none" xmlns="http://www.w3.org/2000/svg">
<path d="M25 50C18.3696 50 12.0107 47.3661 7.32233 42.6777C2.63392 37.9893 0 31.6304 0 25C0 18.3696 2.63392 12.0107 7.32233 7.32233C12.0107 2.63392 18.3696 0 25 0C31.6304 0 37.9893 2.63392 42.6777 7.32233C47.3661 12.0107 50 18.3696 50 25C50 31.6304 47.3661 37.9893 42.6777 42.6777C37.9893 47.3661 31.6304 50 25 50Z" fill="#333333"/>
<path d="M17.5001 15V20C17.5001 21.9891 18.2903 23.8968 19.6968 25.3033C21.1033 26.7098 23.011 27.5 25.0001 27.5C26.9892 27.5 28.8969 26.7098 30.3034 25.3033C31.7099 23.8968 32.5001 21.9891 32.5001 20V15C32.5001 13.0109 31.7099 11.1032 30.3034 9.6967C28.8969 8.29018 26.9892 7.5 25.0001 7.5C23.011 7.5 21.1033 8.29018 19.6968 9.6967C18.2903 11.1032 17.5001 13.0109 17.5001 15V15ZM8.37512 36.1C10.2027 38.8329 12.6759 41.0731 15.5757 42.6223C18.4755 44.1715 21.7124 44.982 25.0001 44.982C28.2878 44.982 31.5248 44.1715 34.4246 42.6223C37.3244 41.0731 39.7975 38.8329 41.6251 36.1C36.4097 33.7059 30.7388 32.4665 25.0001 32.4665C19.2615 32.4665 13.5905 33.7059 8.37512 36.1V36.1Z" fill="white"/>
</svg>
